<?xml version="1.0" encoding="UTF-8"?>
<!-- Generator: Adobe Illustrator 25.4.1, SVG Export Plug-In . SVG Version: 6.00 Build 0)  -->
<svg xmlns="http://www.w3.org/2000/svg" xmlns:xlink="http://www.w3.org/1999/xlink" version="1.1" id="Layer_1" x="0px" y="0px" viewBox="0 0 141 21" style="enable-background:new 0 0 141 21;" xml:space="preserve">
<style type="text/css">
	.st0{fill:#FFFFFF;}
</style>
<path class="st0" d="M24.7,20h-5V0h5V20z M5,15.5h10.8V20H0V0h5V15.5z M44.7,20h5V0h-5v12.2L34.3,0h-5v20h5V7.8L44.7,20z M66.4,8.1  L75,20h-6.5l-5.6-8.3l-3.6,3.8V20h-5V0h5v8.8L67.3,0h6.3L66.4,8.1z M94.2,4.5V0H78.4v20h15.8v-4.5H83.4v-3.4h9V7.9h-9V4.5H94.2z   M118.3,10c0,5.8-4.5,10-10.9,10h-9.1V0l9.1,0C114.2,0,118.3,4.2,118.3,10z M103.3,15.5h4.2c3.5,0,5.9-2.2,5.9-5.6  c0-3.6-2.3-5.5-5.9-5.5h-4.2V15.5z M130.9,20.4c5.8,0,10.1-4,10.1-10.6h0V0h-5v9.7c0,3.8-1.9,6.1-5,6.1c-3.2,0-4.9-2.3-4.9-6.1V0h-5  v9.7C121.1,16.4,125.1,20.4,130.9,20.4z"></path>
</svg>
